<svg width="68" height="68" viewBox="0 0 68 68" fill="none" xmlns="http://www.w3.org/2000/svg">
<rect width="68" height="68" rx="34" fill="#A5C8ED"/>
<path fill-rule="evenodd" clip-rule="evenodd" d="M44.2004 27.2C44.2004 32.8333 39.6337 37.4 34.0004 37.4C28.3671 37.4 23.8004 32.8333 23.8004 27.2C23.8004 21.5667 28.3671 17 34.0004 17C39.6337 17 44.2004 21.5667 44.2004 27.2ZM40.8004 27.2C40.8004 30.9555 37.756 34 34.0004 34C30.2449 34 27.2004 30.9555 27.2004 27.2C27.2004 23.4445 30.2449 20.4 34.0004 20.4C37.756 20.4 40.8004 23.4445 40.8004 27.2Z" fill="#3C77C4"/>
<path d="M34.0004 42.5C22.994 42.5 13.6162 49.0083 10.0439 58.1265C10.9142 58.9906 11.8309 59.808 12.79 60.5745C15.4501 52.2031 23.7948 45.9 34.0004 45.9C44.206 45.9 52.5508 52.2031 55.2108 60.5745C56.17 59.808 57.0867 58.9906 57.9569 58.1265C54.3847 49.0083 45.0069 42.5 34.0004 42.5Z" fill="#3C77C4"/>
</svg>
